<svg width="100" height="100" viewBox="0 0 100 100" fill="none" xmlns="http://www.w3.org/2000/svg">
<g clip-path="url(#clip0_52_221)">
<path d="M69 15H31C29.9 15 29 15.9 29 17V83C29 84.8 31.1 85.7 32.4 84.4L50 66.8L67.6 84.4C68.6 85.4 71 85.1 71 83V17C71 15.9 70.1 15 69 15ZM67 78.2L51.4 62.6C50.6 61.8 49.4 61.8 48.6 62.6L33 78.2V19H67V78.2Z" fill="#EDE417"/>
<path d="M664 -930V754H-1120V-930H664ZM672 -938H-1128V762H672V-938Z" fill="#0000FF"/>
</g>
<defs>
<clipPath id="clip0_52_221">
<rect width="100" height="100" fill="white"/>
</clipPath>
</defs>
</svg>
